<svg height="512" viewBox="0 0 47 58" width="512" xmlns="http://www.w3.org/2000/svg"><g id="Page-1" fill="none" fill-rule="evenodd"><g id="001---Bid-Sign" fill="rgb(0,0,0)" fill-rule="nonzero"><path id="Shape" d="m2 49h8.07c.6149644-.0023972 1.2216731.1415676 1.77.42l1.45.73c2.4284692 1.2034079 5.0997488 1.8361694 7.81 1.85-.0688868-.3288153-.1024107-.6640549-.1-1 .001815-.3016922.0285728-.6027178.08-.9-.700794-.8811446-1.0815849-1.9741557-1.08-3.1.0032129-.6882197.146098-1.368625.42-2-.5599883-1.2745358-.5599883-2.7254642 0-4-.273902-.631375-.4167871-1.3117803-.42-2-.000485-2.3763431 1.6716687-4.4247314 4-4.9v-3.1000004l-.64.0000004c-4.1153706-.000908-8.1004393 1.4430601-11.26 4.08-.7182174.5920034-1.6192499.9170818-2.55.92h-7.55c-1.10320187.0032948-1.9967052.8967981-2 2v9c.0032948 1.1032019.89679813 1.9967052 2 2z"/><path id="Shape" d="m12 26h14v10h-1c-1.6548028.0049422-2.9950578 1.3451972-3 3 .0019313.7405265.2800667 1.4536943.78 2-1.0400491 1.1305142-1.0400491 2.8694858 0 4-.5965279.6517462-.8722698 1.5350487-.7524626 2.4104143.1198073.8753656.6227497 1.6520932 1.3724626 2.1195857-.2600891.44638-.3980479.9533787-.4 1.47.0049422 1.6548028 1.3451972 2.9950578 3 3v1c0 1.6568542 1.3431458 3 3 3s3-1.3431458 3-3v-1c1.6548028-.0049422 2.9950578-1.3451972 3-3-.0019313-.7405265-.2800667-1.4536943-.78-2 1.0400491-1.1305142 1.0400491-2.8694858 0-4 1.0400491-1.1305142 1.0400491-2.8694858 0-4 .4999333-.5463057.7780687-1.2594735.78-2-.0049422-1.6548028-1.3451972-2.9950578-3-3v-10h14c.5522847 0 1-.4477153 1-1v-24c0-.55228475-.4477153-1-1-1h-34c-.5522847 0-1 .44771525-1 1v24c0 .5522847.4477153 1 1 1zm18 29c0 .5522847-.4477153 1-1 1s-1-.4477153-1-1v-1h2zm2-3h-6c-.5522847 0-1-.4477153-1-1s.4477153-1 1-1h6c.5522847 0 1 .4477153 1 1s-.4477153 1-1 1zm0-4h-7c-.5522847 0-1-.4477153-1-1s.4477153-1 1-1h7c.5522847 0 1 .4477153 1 1s-.4477153 1-1 1zm0-4h-7c-.5522847 0-1-.4477153-1-1s.4477153-1 1-1h7c.5522847 0 1 .4477153 1 1s-.4477153 1-1 1zm1-5c0 .5522847-.4477153 1-1 1h-7c-.5522847 0-1-.4477153-1-1s.4477153-1 1-1h7c.5522847 0 1 .4477153 1 1zm-5-3v-9h2v9zm7-30c.0032948-1.10320187.8967981-1.9967052 2-2h2c3.3137085 0 6 2.6862915 6 6v6c0 3.3137085-2.6862915 6-6 6h-2c-1.1032019-.0032948-1.9967052-.8967981-2-2zm-9 0c-.5522847 0-1-.44771525-1-1s.4477153-1 1-1h6c.5522847 0 1 .44771525 1 1s-.4477153 1-1 1h-2v14h2c.5522847 0 1 .4477153 1 1s-.4477153 1-1 1h-6c-.5522847 0-1-.4477153-1-1s.4477153-1 1-1h2v-14zm-12 0c.0032948-1.10320187.8967981-1.9967052 2-2h3c2.1568599-.00665228 4.0733592 1.37456399 4.7492737 3.42278968s-.0420852 4.29882662-1.7792737 5.57721032c1.7371885 1.2783837 2.4551882 3.5289846 1.7792737 5.5772103s-2.5924138 3.429442-4.7492737 3.4227897h-3c-1.1032019-.0032948-1.9967052-.8967981-2-2z"/><path id="Shape" d="m43 16v-6c0-2.209139-1.790861-4-4-4h-2v14h2c2.209139 0 4-1.790861 4-4z"/><path id="Shape" d="m22 9c0-1.65685425-1.3431458-3-3-3h-3v6h3c1.6568542 0 3-1.3431458 3-3z"/><path id="Shape" d="m22 17c0-1.6568542-1.3431458-3-3-3h-3v6h3c1.6568542 0 3-1.3431458 3-3z"/><path id="Shape" d="m35 31h-1v4.36c.1888455-.0909801.3695119-.1980417.54-.32.9637918-.7059401 1.5115308-1.8464379 1.46-3.04 0-.5522847-.4477153-1-1-1z"/></g></g></svg>