<svg height="512" viewBox="0 0 512 512" width="512" xmlns="http://www.w3.org/2000/svg"><g id="Solid"><g><path d="m260 128a12.013 12.013 0 0 0 12-12v-36h-32v36a12.013 12.013 0 0 0 12 12z"/><path d="m212 128a12.013 12.013 0 0 0 12-12v-36h-32v36a12.013 12.013 0 0 0 12 12z"/><path d="m308 128a12.013 12.013 0 0 0 12-12v-36h-32v36a12.013 12.013 0 0 0 12 12z"/><path d="m356 128a12.013 12.013 0 0 0 12-12v-36h-32v36a12.013 12.013 0 0 0 12 12z"/><path d="m136 135.577v89.09a48.1 48.1 0 0 1 32 20.827 48 48 0 0 1 40-21.494h24a8 8 0 0 1 8 8v8a47.811 47.811 0 0 1 -12.253 32h25.191l3.124-24.992a8 8 0 0 1 7.938-7.008h32v-8a47.976 47.976 0 0 1 80-35.747v-60.676a27.917 27.917 0 0 1 -20 8.423h-8a27.917 27.917 0 0 1 -20-8.423 27.917 27.917 0 0 1 -20 8.423h-8a27.917 27.917 0 0 1 -20-8.423 27.917 27.917 0 0 1 -20 8.423h-8a27.917 27.917 0 0 1 -20-8.423 27.917 27.917 0 0 1 -20 8.423h-8a27.917 27.917 0 0 1 -20-8.423 27.917 27.917 0 0 1 -20 8.423h-8a27.917 27.917 0 0 1 -20-8.423z"/><path d="m392 272h-16v-16h-64v16h-16v-16h-24.938l-2 16h2.938a8 8 0 0 1 8 8v48a8 8 0 0 1 -8 8h-8v96h174.938l-22-176h-24.938zm24 136h-40v-16h40z"/><path d="m136 288h64v32h-64z"/><path d="m312 232v8h64v-8a32 32 0 0 0 -64 0z"/><path d="m164 128a12.013 12.013 0 0 0 12-12v-36h-32v36a12.013 12.013 0 0 0 12 12z"/><path d="m144 336h48v96h-48z"/><path d="m384 116a12.013 12.013 0 0 0 12 12h8a12.013 12.013 0 0 0 12-12v-36h-32z"/><path d="m112 240a32.036 32.036 0 0 0 32 32h16a32.036 32.036 0 0 0 -32-32z"/><path d="m88 336h40v96h-40z"/><path d="m72 288h48v32h-48z"/><path d="m136 468a12.013 12.013 0 0 0 12 12h216a12.013 12.013 0 0 0 12-12v-20h-240z"/><path d="m108 128h8a12.013 12.013 0 0 0 12-12v-36h-32v36a12.013 12.013 0 0 0 12 12z"/><path d="m208 336h40v96h-40z"/><path d="m357.333 32h-202.666l-42.667 32h288z"/><path d="m224 240h-16a32.036 32.036 0 0 0 -32 32h16a32.036 32.036 0 0 0 32-32z"/><path d="m216 288h48v32h-48z"/></g></g></svg>