<svg id="Layer_5" enable-background="new 0 0 64 64" height="512" viewBox="0 0 64 64" width="512" xmlns="http://www.w3.org/2000/svg"><g><path d="m58 38c-1.105 0-2 .895-2 2v-2c0-1.105-.895-2-2-2s-2 .895-2 2c0-1.105-.895-2-2-2s-2 .895-2 2v-12c0-1.105-.895-2-2-2s-2 .895-2 2v18.276c0-3.466-2.81-6.276-6.276-6.276h-.109c-.891 0-1.615.723-1.615 1.615 0 .251.058.499.171.723 1.203 2.402 1.829 5.051 1.829 7.737v.961c0 1.289.416 2.543 1.186 3.576l1.814 2.435v2.953h-2v4h20v-4h-2v-2.967l1.8-2.4c.779-1.039 1.2-2.302 1.2-3.6v-9.033c0-1.105-.896-2-2-2z"/><path d="m37 31h-2v6.134c.524-.553 1.218-.936 2-1.071z"/><path d="m36 48.074c0-1.841-.349-3.68-1-5.403v2.329c0 1.103-.897 2-2 2h-26c-1.103 0-2-.897-2-2v-34c0-1.103.897-2 2-2h24.184c.414-1.161 1.514-2 2.816-2h3v-1c0-1.654-1.346-3-3-3h-6.219l-1 4h-13.562l-1-4h-6.219c-1.654 0-3 1.346-3 3v48c0 1.654 1.346 3 3 3h28c1.654 0 3-1.346 3-3v-1.123c-.643-1.173-1-2.5-1-3.841zm-25.707 5.633c-.188.188-.442.293-.707.293h-.586c-.552 0-1-.448-1-1v-2c0-.552.448-1 1-1h.586c.265 0 .52.105.707.293l1.707 1.707zm11.707-.707c0 .552-.448 1-1 1h-2c-.552 0-1-.448-1-1v-2c0-.552.448-1 1-1h2c.552 0 1 .448 1 1zm10 0c0 .552-.448 1-1 1h-.586c-.265 0-.52-.105-.707-.293l-1.707-1.707 1.707-1.707c.188-.188.442-.293.707-.293h.586c.552 0 1 .448 1 1z"/><path d="m24.588 15.337-1.714-.337c-.445 1.723-2.013 3-3.874 3s-3.428-1.277-3.874-3h-.027l-1.688.337c-1.397.28-2.411 1.517-2.411 2.942v3.94l2 .5v-3.719h2v12h8v-12h2v3.719l2-.5v-3.94c0-1.425-1.014-2.662-2.412-2.942z"/><path d="m7 11v34h26v-14.184c-1.161-.414-2-1.514-2-2.816v-17zm8 31c-1.657 0-3-1.343-3-3s1.343-3 3-3 3 1.343 3 3-1.343 3-3 3zm10 0c-1.657 0-3-1.343-3-3s1.343-3 3-3 3 1.343 3 3-1.343 3-3 3zm4-18.219-4 1v8.219h-12v-8.219l-4-1v-5.501c0-2.375 1.69-4.437 4.019-4.903l1.981-.377h2v1c0 1.103.897 2 2 2s2-.897 2-2v-1l2.196.02 1.785.357c2.329.465 4.019 2.527 4.019 4.902z"/><path d="m60 9h-26c-.551 0-1 .449-1 1v18c0 .551.449 1 1 1h8v-3c0-.8.242-1.542.648-2.168-.789-2.315-2.81-3.557-4.448-4.197.512.75.8 1.649.8 2.602v4.763h-2v-4.764c0-.998-.555-1.895-1.447-2.341l-.553-.277v-.735-1.883-.149c0-2.12 1.053-4.088 2.818-5.265.575-.383 1.244-.586 1.936-.586 1.093 0 2.137.522 2.793 1.396l3.911 5.214c.785 1.047 1.818 1.909 2.989 2.495 1.17.585 2.48.895 3.789.895h.764c2.757 0 5 2.243 5 5v1l-9-.018v2.018h10c.551 0 1-.449 1-1v-18c0-.551-.449-1-1-1zm-9 4h-2v-2h2zm4 0h-2v-2h2zm4 0h-2v-2h2z"/><path d="m46 22c1.858 0 3.411 1.28 3.858 3h6.971c-.413-1.164-1.525-2-2.829-2h-.764c-1.617 0-3.236-.382-4.683-1.105-1.447-.724-2.725-1.79-3.695-3.083l-3.91-5.214c-.458-.61-1.387-.77-2.021-.346-1.206.803-1.927 2.149-1.927 3.599v.149.17c1.75.396 5.619 1.661 7.253 5.249.53-.26 1.118-.419 1.747-.419z"/><path d="m25.219 5 .5-2h-11.438l.5 2z"/></g></svg>