<?xml version="1.0"?>
<svg xmlns="http://www.w3.org/2000/svg" xmlns:xlink="http://www.w3.org/1999/xlink" xmlns:svgjs="http://svgjs.com/svgjs" version="1.1" width="512" height="512" x="0" y="0" viewBox="0 0 512 512" style="enable-background:new 0 0 512 512" xml:space="preserve" class=""><g><path xmlns="http://www.w3.org/2000/svg" d="m255 91h-90c-8.289062 0-15-6.710938-15-15s6.710938-15 15-15h90c8.289062 0 15 6.710938 15 15s-6.710938 15-15 15zm0 0" fill="#000000" data-original="#99503d" style="" class=""/><path xmlns="http://www.w3.org/2000/svg" d="m240 15h90v121h-90zm0 0" fill="#000000" data-original="#ffd396" style="" class=""/><path xmlns="http://www.w3.org/2000/svg" d="m285 15h45v121h-45zm0 0" fill="#000000" data-original="#ffb64c" style="" class=""/><path xmlns="http://www.w3.org/2000/svg" d="m225 391.648438c-8.289062 0-15-6.710938-15-15v-120.648438c0-8.289062 6.710938-15 15-15s15 6.710938 15 15v120.648438c0 8.289062-6.710938 15-15 15zm0 0" fill="#000000" data-original="#80e980" style="" class=""/><path xmlns="http://www.w3.org/2000/svg" d="m315 391.855469c-8.289062 0-15-6.710938-15-15v-120.855469c0-8.289062 6.710938-15 15-15s15 6.710938 15 15v120.855469c0 8.289062-6.710938 15-15 15zm0 0" fill="#000603" data-original="#1fbf65" style="" class=""/><path xmlns="http://www.w3.org/2000/svg" d="m405 316c0 8.398438-6.597656 15-15 15h-252c-8.398438 0-15-6.601562-15-15 0-8.402344 6.601562-15 15-15h252c8.402344 0 15 6.597656 15 15zm0 0" fill="#000000" data-original="#80e980" style="" class=""/><path xmlns="http://www.w3.org/2000/svg" d="m405 316c0 8.398438-6.597656 15-15 15h-105v-30h105c8.402344 0 15 6.597656 15 15zm0 0" fill="#000603" data-original="#1fbf65" style="" class=""/><path xmlns="http://www.w3.org/2000/svg" d="m419.398438 259.601562-30 121c-1.5 6.597657-7.5 11.398438-14.398438 11.398438h-228c-8.398438 0-15-6.601562-15-15 0-8.402344 6.601562-15 15-15h216.300781l22.5-91h-253.800781c-8.398438 0-15-6.601562-15-15 0-8.402344 6.601562-15 15-15h273c4.5 0 9 2.101562 11.699219 5.699219 3 3.601562 3.902343 8.398437 2.699219 12.902343zm0 0" fill="#000000" data-original="#80e980" style="" class=""/><path xmlns="http://www.w3.org/2000/svg" d="m419.398438 259.601562-30 121c-1.5 6.597657-7.5 11.398438-14.398438 11.398438h-90v-30h78.300781l22.5-91h-100.800781v-30h120c4.5 0 9 2.101562 11.699219 5.699219 3 3.601562 3.902343 8.398437 2.699219 12.902343zm0 0" fill="#000603" data-original="#1fbf65" style="" class=""/><path xmlns="http://www.w3.org/2000/svg" d="m420 437c0 8.398438-6.597656 15-15 15h-200.699219c-38.699219 0-70.800781-29.101562-74.699219-67.5l-19.203124-193c-2.097657-23.101562-21.597657-40.5-44.699219-40.5h-50.699219c-8.402344 0-15-6.601562-15-15 0-8.402344 6.597656-15 15-15h50.699219c38.699219 0 70.800781 29.097656 74.699219 67.5l19.203124 193c2.097657 23.097656 21.597657 40.5 44.699219 40.5h200.699219c8.402344 0 15 6.597656 15 15zm0 0" fill="#000000" data-original="#3e5959" style="" class=""/><path xmlns="http://www.w3.org/2000/svg" d="m420 437c0 8.398438-6.597656 15-15 15h-120v-30h120c8.402344 0 15 6.597656 15 15zm0 0" fill="#080808" data-original="#293939" style="" class=""/><path xmlns="http://www.w3.org/2000/svg" d="m345 512c-24.8125 0-45-20.1875-45-45s20.1875-45 45-45 45 20.1875 45 45-20.1875 45-45 45zm0 0" fill="#000000" data-original="#3e5959" style="" class=""/><path xmlns="http://www.w3.org/2000/svg" d="m225 512c-24.8125 0-45-20.1875-45-45s20.1875-45 45-45 45 20.1875 45 45-20.1875 45-45 45zm0 0" fill="#000000" data-original="#537983" style="" class=""/><g xmlns="http://www.w3.org/2000/svg" fill="#99503d"><path d="m360 15c0 8.402344-6.597656 15-15 15h-120c-8.402344 0-15-6.597656-15-15s6.597656-15 15-15h120c8.402344 0 15 6.597656 15 15zm0 0" fill="#000000" data-original="#99503d" style="" class=""/><path d="m360 136c0 8.398438-6.597656 15-15 15h-120c-8.402344 0-15-6.601562-15-15 0-8.402344 6.597656-15 15-15h120c8.402344 0 15 6.597656 15 15zm0 0" fill="#000000" data-original="#99503d" style="" class=""/><path d="m360 196c0 8.398438-6.597656 15-15 15h-120c-8.402344 0-15-6.601562-15-15 0-8.402344 6.597656-15 15-15h120c8.402344 0 15 6.597656 15 15zm0 0" fill="#000000" data-original="#99503d" style="" class=""/></g><path xmlns="http://www.w3.org/2000/svg" d="m345 482c-8.277344 0-15-6.722656-15-15s6.722656-15 15-15 15 6.722656 15 15-6.722656 15-15 15zm0 0" fill="#000000" data-original="#a8d3d8" style="" class=""/><path xmlns="http://www.w3.org/2000/svg" d="m225 482c-8.277344 0-15-6.722656-15-15s6.722656-15 15-15 15 6.722656 15 15-6.722656 15-15 15zm0 0" fill="#000000" data-original="#deecf1" style="" class=""/><path xmlns="http://www.w3.org/2000/svg" d="m345 211h-60v-30h60c8.402344 0 15 6.597656 15 15 0 8.398438-6.597656 15-15 15zm0 0" fill="#000000" data-original="#804231" style="" class=""/><path xmlns="http://www.w3.org/2000/svg" d="m345 151h-60v-30h60c8.402344 0 15 6.597656 15 15 0 8.398438-6.597656 15-15 15zm0 0" fill="#000000" data-original="#804231" style="" class=""/><path xmlns="http://www.w3.org/2000/svg" d="m345 30h-60v-30h60c8.402344 0 15 6.597656 15 15s-6.597656 15-15 15zm0 0" fill="#000000" data-original="#804231" style="" class=""/></g></svg>
