<?xml version="1.0"?>
<svg xmlns="http://www.w3.org/2000/svg" xmlns:xlink="http://www.w3.org/1999/xlink" xmlns:svgjs="http://svgjs.com/svgjs" version="1.1" width="512" height="512" x="0" y="0" viewBox="0 0 509.256 509.256" style="enable-background:new 0 0 512 512" xml:space="preserve" class=""><g>
<path xmlns="http://www.w3.org/2000/svg" style="" d="M216,500.993H8v-24c0-4.416,3.584-8,8-8h192c4.416,0,8,3.584,8,8V500.993z" fill="#ffffff" data-original="#f95055" class=""/>
<rect xmlns="http://www.w3.org/2000/svg" x="350.206" y="214.528" transform="matrix(-0.7071 0.7071 -0.7071 -0.7071 853.2084 253.0037)" style="" width="48" height="177.358" fill="#ffffff" data-original="#fb9700" class=""/>
<rect xmlns="http://www.w3.org/2000/svg" x="145.565" y="90.644" transform="matrix(-0.7071 -0.7071 0.7071 -0.7071 259.6276 385.0682)" style="" width="127.999" height="96.239" fill="#ffffff" data-original="#fdcd3b" class=""/>
<g xmlns="http://www.w3.org/2000/svg">
	<path style="" d="M288.888,150.001l-90.512-90.512c-3.128-3.128-3.128-8.192,0-11.312l5.656-5.656   c3.128-3.128,8.192-3.128,11.312,0l90.512,90.512c3.128,3.128,3.128,8.192,0,11.312l-5.656,5.656   C297.08,153.121,292.008,153.121,288.888,150.001z" fill="#ffffff" data-original="#f95055" class=""/>
	
		<rect x="251.435" y="160.416" transform="matrix(-0.7071 -0.7071 0.7071 -0.7071 313.6532 514.7499)" style="" width="24" height="63.999" fill="#ffffff" data-original="#f95055" class=""/>
	
		<rect x="284.231" y="197.185" transform="matrix(-0.7071 -0.7071 0.7071 -0.7071 350.4688 603.5375)" style="" width="32" height="63.999" fill="#ffffff" data-original="#f95055" class=""/>
	<path style="" d="M181.408,76.457l-22.928-13.76c-3.144-1.888-7.176-1.392-9.776,1.2l-13.792,13.792   c-2.592,2.592-3.088,6.624-1.2,9.776l13.76,22.928L181.408,76.457z" fill="#ffffff" data-original="#f95055" class=""/>
	<path style="" d="M493.896,371.985l-15.664-10.016l-18.672-18.672l-45.256,45.256l18.104,18.104l10.552,16.352   c5.528,8.568,17.552,9.848,24.76,2.64l28.872-28.872C503.824,389.553,502.512,377.489,493.896,371.985z" fill="#ffffff" data-original="#f95055" class=""/>
</g>
<g xmlns="http://www.w3.org/2000/svg">
	
		<rect x="268.403" y="185.372" transform="matrix(-0.7071 -0.7071 0.7071 -0.7071 330.6296 555.694)" style="" width="24" height="48" fill="#ffffff" data-original="#fb9700" class=""/>
	<path style="" d="M331.256,120.329l-25.4,12.696l-90.504-90.504l12.696-25.4c4.88-9.768,17.904-11.88,25.624-4.16   l81.744,81.744C343.136,102.425,341.024,115.441,331.256,120.329z" fill="#ffffff" data-original="#fb9700" class=""/>
</g>
<path xmlns="http://www.w3.org/2000/svg" style="" d="M221.008,217.881l-90.512-90.512c-3.128-3.128-8.192-3.128-11.312,0l-5.656,5.656  c-3.128,3.128-3.128,8.192,0,11.312l90.512,90.512c3.128,3.128,8.192,3.128,11.312,0l5.656-5.656  C224.128,226.073,224.128,221.001,221.008,217.881z" fill="#ffffff" data-original="#f95055" class=""/>
<path xmlns="http://www.w3.org/2000/svg" style="" d="M191.336,260.249l12.696-25.4l-90.504-90.504l-25.4,12.696c-9.768,4.88-11.88,17.904-4.16,25.624  l81.744,81.744C173.432,272.129,186.448,270.017,191.336,260.249z" fill="#ffffff" data-original="#fb9700" class=""/>
<path xmlns="http://www.w3.org/2000/svg" d="M498.2,365.241l-14.928-9.544l-18.056-18.048c-3.128-3.128-8.184-3.128-11.312,0L339.8,223.537  c3.128-3.128,3.128-8.184,0-11.312l-22.624-22.632c-1.504-1.504-3.528-2.344-5.656-2.344s-4.16,0.84-5.656,2.344l-5.656-5.656  c1.504-1.504,2.344-3.528,2.344-5.656s-0.84-4.16-2.344-5.656l-11.312-11.312l1.56-1.56c1.32,0.352,2.672,0.592,4.08,0.592  c0.008,0,0.008,0,0.016,0c4.272,0,8.288-1.664,11.312-4.688l5.656-5.656c3.576-3.576,5.032-8.44,4.512-13.112l18.808-9.4  c6.984-3.496,11.712-9.92,12.96-17.632c1.24-7.704-1.2-15.288-6.728-20.808L259.336,7.305c-5.52-5.528-13.136-7.96-20.808-6.728  c-7.712,1.248-14.136,5.976-17.632,12.96l-9.472,18.944c-4.696-0.48-9.592,0.928-13.04,4.376l-5.664,5.656  c-3.024,3.024-4.688,7.048-4.688,11.328c0,1.4,0.248,2.76,0.592,4.08l-8.464,8.464l-17.568-10.544  c-6.32-3.784-14.352-2.8-19.544,2.408l-13.808,13.8c-5.184,5.2-6.176,13.232-2.4,19.536l10.544,17.576l-8.552,8.56  c-5.344-1.304-11.312-0.008-15.312,3.992l-5.664,5.656c-3.576,3.576-5.024,8.44-4.504,13.112l-18.816,9.408  c-6.984,3.496-11.704,9.912-12.96,17.624c-1.248,7.704,1.2,15.296,6.72,20.816l81.736,81.744c4.576,4.576,10.568,7.04,16.872,7.04  c1.304,0,2.624-0.104,3.936-0.312c7.712-1.248,14.136-5.976,17.632-12.96l0,0l9.408-18.808c0.6,0.064,1.184,0.176,1.792,0.176  c4.272,0,8.288-1.664,11.312-4.688l5.656-5.656c3.024-3.024,4.688-7.048,4.688-11.328c0-1.408-0.248-2.76-0.592-4.08l1.568-1.568  l11.312,11.32c1.504,1.504,3.536,2.344,5.656,2.344s4.16-0.84,5.656-2.344l5.656,5.656c-1.504,1.504-2.344,3.528-2.344,5.656  s0.84,4.16,2.344,5.656l22.632,22.624c1.56,1.56,3.608,2.344,5.656,2.344s4.096-0.784,5.656-2.344l114.104,114.104l0,0  c-1.504,1.504-2.344,3.528-2.344,5.656s0.84,4.16,2.344,5.656l17.504,17.504l10.096,15.632c3.944,6.128,10.368,10.08,17.608,10.848  c0.864,0.096,1.728,0.136,2.584,0.136c6.336,0,12.4-2.496,16.936-7.032l28.864-28.864c5.168-5.176,7.68-12.312,6.888-19.576  C508.352,375.601,504.36,369.177,498.2,365.241z M221,206.569l-79.192-79.2l56.568-56.576l79.2,79.2L221,206.569z M294.56,144.361  c0,0-0.008-0.008-0.008-0.016C294.544,144.353,294.552,144.353,294.56,144.361L294.56,144.361z M241.08,16.377  c2.576-0.408,5.088,0.408,6.936,2.24l81.744,81.744c1.84,1.84,2.656,4.368,2.24,6.936s-1.992,4.712-4.32,5.872l-20.24,10.12  l-82.36-82.352l10.12-20.24C236.368,18.369,238.512,16.793,241.08,16.377z M209.688,48.169l90.512,90.512l-5.664,5.648  l-90.504-90.504L209.688,48.169z M140.568,83.353l13.8-13.792l14.144,8.488l-9.696,9.696l-9.752,9.752L140.568,83.353z   M124.696,133.169L124.696,133.169l90.504,90.512l0,0l-5.512,5.512l-90.512-90.512L124.696,133.169z M178.304,260.993  c-2.536,0.432-5.088-0.408-6.936-2.24l-81.744-81.744c-1.84-1.84-2.656-4.368-2.24-6.936c0.416-2.568,1.992-4.712,4.32-5.872  l20.24-10.12l82.36,82.352l-10.12,20.24C183.016,259.001,180.872,260.577,178.304,260.993z M249.288,212.225l-5.656-5.664  l33.936-33.936l5.664,5.656L249.288,212.225z M266.256,217.881l22.632-22.632l5.656,5.656l-22.632,22.632L266.256,217.881z   M288.888,251.825l-11.32-11.312l33.944-33.944l11.312,11.32L288.888,251.825z M305.856,257.481l22.624-22.624l114.112,114.112  l-22.624,22.624L305.856,257.481z M490.936,391.129l-28.864,28.864c-1.728,1.728-4.176,2.568-6.504,2.296  c-2.416-0.256-4.552-1.568-5.872-3.608l-10.552-16.352c-0.304-0.48-0.664-0.92-1.064-1.32l-12.456-12.456l33.944-33.936  l13.016,13.008c0.408,0.408,0.856,0.776,1.344,1.088l15.664,10.016c0,0,0,0,0.008,0c2.048,1.312,3.376,3.456,3.64,5.864  C493.504,387.017,492.656,389.401,490.936,391.129z" fill="#000000" data-original="#000000" style="" class=""/>
<ellipse xmlns="http://www.w3.org/2000/svg" transform="matrix(-0.0064 -1 1 -0.0064 -268.3585 495.3619)" style="" cx="111.922" cy="381.004" rx="87.922" ry="88.082" fill="#ffffff" data-original="#fdcd3b" class=""/>
<path xmlns="http://www.w3.org/2000/svg" d="M208,460.993h-43.08c5.48-3.632,10.64-7.824,15.376-12.6c18.032-18.232,27.872-42.392,27.712-68.016  c-0.336-52.68-43.368-95.296-96.056-95.296c-0.208,0-0.424,0-0.632,0c-25.656,0.168-49.712,10.288-67.744,28.512  c-18.032,18.232-27.872,42.392-27.704,68.016c0.168,25.616,10.312,49.64,28.576,67.64c4.48,4.416,9.328,8.336,14.456,11.744H16  c-8.824,0-16,7.176-16,16v24c0,4.424,3.584,8,8,8h208c4.416,0,8-3.576,8-8v-24C224,468.169,216.824,460.993,208,460.993z   M31.864,381.497c-0.136-21.344,8.056-41.464,23.08-56.648c15.024-15.192,35.08-23.64,56.472-23.776c0.176,0,0.344,0,0.52,0  c43.912,0,79.776,35.504,80.056,79.408c0.136,21.344-8.064,41.464-23.088,56.648c-15.024,15.192-35.08,23.64-56.472,23.776  c-0.176,0-0.352,0-0.528,0c-21.192,0-41.144-8.168-56.24-23.048C40.456,422.857,32,402.841,31.864,381.497z M208,492.993H16v-16h192  V492.993z" fill="#000000" data-original="#000000" style="" class=""/>
<path xmlns="http://www.w3.org/2000/svg" d="M120.104,428.937l-0.048-7.896l8.152-0.048c8.816-0.064,15.944-7.28,15.888-16.096L144,388.689  c-0.024-4.272-1.712-8.28-4.76-11.288c-3.016-2.976-7-4.608-11.224-4.608c-0.04,0-0.08,0-0.12,0l-31.8,0.192L96,357.249  l40.048-0.256l-0.104-16l-15.896,0.104l-0.048-8.16l-16,0.112l0.048,8.152l-8.144,0.056c-4.28,0.024-8.288,1.712-11.296,4.76  c-3,3.04-4.64,7.072-4.616,11.344l0.104,15.736c0.024,4.28,1.712,8.288,4.76,11.288c3.016,2.976,7,4.608,11.232,4.608  c0.04,0,0.08,0,0.12,0L128,388.785l0.104,16.208l-40.16,0.256l0.104,16l16-0.104l0.048,7.896L120.104,428.937z" fill="#000000" data-original="#000000" style="" class=""/>
<g xmlns="http://www.w3.org/2000/svg">
</g>
<g xmlns="http://www.w3.org/2000/svg">
</g>
<g xmlns="http://www.w3.org/2000/svg">
</g>
<g xmlns="http://www.w3.org/2000/svg">
</g>
<g xmlns="http://www.w3.org/2000/svg">
</g>
<g xmlns="http://www.w3.org/2000/svg">
</g>
<g xmlns="http://www.w3.org/2000/svg">
</g>
<g xmlns="http://www.w3.org/2000/svg">
</g>
<g xmlns="http://www.w3.org/2000/svg">
</g>
<g xmlns="http://www.w3.org/2000/svg">
</g>
<g xmlns="http://www.w3.org/2000/svg">
</g>
<g xmlns="http://www.w3.org/2000/svg">
</g>
<g xmlns="http://www.w3.org/2000/svg">
</g>
<g xmlns="http://www.w3.org/2000/svg">
</g>
<g xmlns="http://www.w3.org/2000/svg">
</g>
</g></svg>
