<svg id="Capa_1" enable-background="new 0 0 511.5 511.5" height="512" viewBox="0 0 511.5 511.5" width="512" xmlns="http://www.w3.org/2000/svg"><g><path d="m396.459 26.922h-57.745c2.473 6.389 4.24 13.127 5.178 20.125h31.04l18.506 269.453h-275.376l18.506-269.453h31.04c.939-6.999 2.705-13.737 5.178-20.125h-57.745c-16.569 0-30 13.432-30 30v315.844h341.419v-315.844c-.001-16.569-13.432-30-30.001-30z"/><path d="m85.041 481.5c0 16.569 13.431 30 30 30h281.419c16.569 0 30-13.431 30-30v-78.734h-341.419z"/><path d="m255.75 197.174c8.492 0 15.4-6.909 15.4-15.401s-6.908-15.401-15.4-15.401-15.401 6.909-15.401 15.401 6.909 15.401 15.401 15.401z"/><path d="m150.193 286.5h211.115l-14.386-209.453h-32.239v-18.113c.001-32.496-26.437-58.934-58.933-58.934s-58.934 26.438-58.934 58.934v18.113h-32.239zm76.623-227.566c0-15.955 12.98-28.934 28.934-28.934s28.934 12.979 28.934 28.934v18.113h-57.867v-18.113zm28.934 77.439c25.034 0 45.4 20.367 45.4 45.401s-20.366 45.401-45.4 45.401-45.401-20.367-45.401-45.401 20.367-45.401 45.401-45.401z"/></g></svg>