<svg height="464pt" viewBox="-81 0 464 464.73706" width="464pt" xmlns="http://www.w3.org/2000/svg"><path d="m102.976562 45.125 11-13.949219c1.3125-1.707031 3.328126-2.722656 5.480469-2.769531h39.691407c-9.21875-11-19.640626-19.15625-29.941407-24.113281-10.707031-5.15625-20.015625-5.660157-25.527343-1.554688-5.515626 4.105469-7.613282 13.199219-5.753907 24.9375 1.007813 5.992188 2.703125 11.84375 5.050781 17.449219zm0 0"/><path d="m266.890625 204.40625h-6.890625v37h6.890625c4.480469 0 7.109375-2.5 7.109375-7.945312v-20.71875c0-5.4375-2.628906-8.335938-7.109375-8.335938zm0 0"/><path d="m234.925781 394.40625h-163.371093c-1.753907.101562-3.46875-.546875-4.71875-1.78125-1.253907-1.234375-1.917969-2.941406-1.835938-4.699219v-179.019531l-64.632812 181.550781 209.777343 74.28125zm0 0"/><path d="m189.921875 133.457031c9.285156.007813 17.285156-6.527343 19.132813-15.625 1.84375-9.09375-2.980469-18.230469-11.53125-21.839843-1.691407 7.742187-5.429688 13.90625-11.027344 18.074218-4.457032 3.246094-9.773438 5.109375-15.28125 5.347656 2.429687 8.3125 10.046875 14.03125 18.707031 14.042969zm0 0"/><path d="m302 98.480469-44.992188-56.074219h-134.167968l-12.972656 16.476562c2.292968 3.933594 4.796874 7.742188 7.5 11.40625 10.398437 13.976563 22.910156 24.949219 35.238281 30.882813 1.789062.867187 3.625 1.628906 5.5 2.292969 5.335937-16.292969 22.097656-25.9375 38.867187-22.371094 16.769532 3.570312 28.144532 19.210938 26.382813 36.261719-1.761719 17.054687-16.097657 30.035156-33.242188 30.101562-17.140625.066407-31.578125-12.804687-33.46875-29.84375-16.699219-4.785156-35.285156-18.542969-50.464843-38.945312-1.96875-2.648438-3.628907-5.316407-5.347657-8l-21.832031 27.8125v281.925781h223zm-102 99.140625c0-2.640625 3.378906-3.761719 6.5-3.761719 3.117188 0 6.5 1.121094 6.5 3.761719v43.785156h17.652344c2.402344 0 3.601562 2.777344 3.601562 5.5 0 2.71875-1.199218 5.5-3.601562 5.5h-25.277344c-2.722656 0-5.375-1.34375-5.375-3.902344zm-55 15.121094c0-13.761719 8.417969-18.882813 19.457031-18.882813 11.042969 0 19.542969 5.121094 19.542969 18.882813v21.199218c0 13.757813-8.5 18.878906-19.542969 18.878906-11.039062 0-19.457031-5.117187-19.457031-18.878906zm-53.144531 30c0-2.722657 2.398437-6.722657 5.4375-6.722657 3.761719 0 6.160156 5.921875 13.601562 5.921875 3.679688 0 7.757813-1.441406 7.757813-5.28125 0-9.679687-25.359375-8-25.359375-26.71875 0-12 10.480469-16.5625 20.480469-16.5625 4.238281 0 15.921874.800782 15.921874 7.042969 0 2.15625-1.441406 6.558594-4.960937 6.558594-2.878906 0-4.402344-3.039063-10.960937-3.039063-5.679688 0-8 2.320313-8 4.796875 0 8 25.359374 6.484375 25.359374 26.644531 0 11.519532-8.398437 17.757813-20 17.757813-10.476562 0-19.277343-5.117187-19.277343-10.398437zm178.71875 114.664062h-161.296875c-3.867188 0-7-3.136719-7-7 0-3.867188 3.132812-7 7-7h161.296875c3.867187 0 7 3.132812 7 7 0 3.863281-3.132813 7-7 7zm0-38h-161.296875c-3.867188 0-7-3.136719-7-7 0-3.867188 3.132812-7 7-7h161.296875c3.867187 0 7 3.132812 7 7 0 3.863281-3.132813 7-7 7zm16.425781-85.945312c0 13.761718-9.066406 18.945312-20.109375 18.945312h-14.160156c-3.277344 0-4.730469-1.824219-4.730469-3.824219v-50.960937c0-2 1.453125-4.214844 4.730469-4.214844h14.160156c11.042969 0 20.109375 5.574219 20.109375 19.335938zm0 0"/><path d="m183.074219 95.714844c-4.578125 1.730468-8.339844 5.109375-10.550781 9.476562 2.027343-.347656 3.945312-1.15625 5.613281-2.355468 2.324219-1.824219 4.042969-4.304688 4.9375-7.121094zm0 0"/><path d="m164.457031 241.941406c4.480469 0 7.542969-2.480468 7.542969-8v-21.199218c0-5.519532-3.0625-8-7.542969-8-4.476562 0-7.457031 2.480468-7.457031 8v21.199218c0 5.519532 2.976562 8 7.457031 8zm0 0"/></svg>