<?xml version="1.0" encoding="iso-8859-1"?>
<!-- Generator: Adobe Illustrator 19.0.0, SVG Export Plug-In . SVG Version: 6.00 Build 0)  -->
<svg version="1.1" id="Capa_1" xmlns="http://www.w3.org/2000/svg" xmlns:xlink="http://www.w3.org/1999/xlink" x="0px" y="0px"
	 viewBox="0 0 511.998 511.998" style="enable-background:new 0 0 511.998 511.998;" xml:space="preserve">
<path style="fill:#EFEFEF;" d="M335.373,76.814c-6.721,0-105.719,0-112.48,0h-20.728c-24.811,0-45.396,20.175-45.396,45.396
	c0,19.151,0,159.122,0,177.604v19.829c0,14.396,0,122.24,0,135.871c0,25.019,20.281,45.3,45.3,45.3h1.273h130.854h1.273
	c25.019,0,45.3-20.281,45.3-45.3c0-88.195,0-176.328,0-263.995V122.21C380.769,97.001,360.197,76.814,335.373,76.814z"/>
<path style="fill:#DDDDDD;" d="M182.853,455.514c0-2.193,0-326.455,0-333.303c0-25.132,20.493-45.396,45.396-45.396h-5.356h-20.728
	c-24.811,0-45.396,20.175-45.396,45.396c0,19.151,0,159.122,0,177.604v19.829c0,14.396,0,122.24,0,135.871
	c0,25.019,20.281,45.3,45.3,45.3h1.273h24.81C203.134,500.814,182.853,480.532,182.853,455.514z"/>
<path style="fill:#3997EE;" d="M355.769,455.691c0,10.766-8.421,19.462-18.921,20.081h0.01c0,0-1.759,0.042-2.662,0.042H203.342
	c-0.903,0-1.791-0.065-2.662-0.18l0.004,0.048c-10.224-1.118-17.914-9.748-17.914-19.991c0-136.609,0-269.294,0-332.719
	c0-11.311,9.35-20.158,20.094-20.158h12.98c3.273,0,5.926,2.653,5.926,5.926v6.38c0,6.432,5.262,11.694,11.694,11.694
	c36.263,0,18.104,0,71.36,0h0.103c0.983-0.215,7.039,1.141,11.443-4.641c1.013-1.309,1.815-2.941,2.201-4.64
	c-0.014-0.02-0.027-0.04-0.042-0.06c0.157-0.761,0.24-1.548,0.24-2.354v-6.38c0-3.273,2.653-5.926,5.926-5.926h10.98
	c10.772,0,20.094,8.864,20.094,20.158v63.388C355.769,276.242,355.769,366.065,355.769,455.691z"/>
<path style="fill:#1E88D8;" d="M224.684,475.682c-10.224-1.118-17.914-9.748-17.914-19.991c0-136.609,0-269.294,0-332.719
	c0-8.546,5.357-15.822,12.903-18.751c-1.033-0.876-2.368-1.407-3.829-1.407h-12.98c-10.772,0-20.094,8.864-20.094,20.158
	c0,71.504,0,221.368,0,332.719c0,10.227,7.681,18.872,17.914,19.991l-0.004-0.048c0.872,0.116,1.759,0.18,2.662,0.18h24
	c-0.903,0-1.791-0.065-2.662-0.18L224.684,475.682z"/>
<path style="fill:#32CC65;" d="M504.503,106.954c0,8.218-9.879,15.027-11.905,22.606c-2.096,7.842,2.993,18.667-0.979,25.532
	c-4.029,6.965-15.986,7.944-21.638,13.596s-6.632,17.609-13.596,21.638c-6.866,3.972-17.691-1.117-25.532,0.979
	c-7.579,2.025-14.388,11.905-22.606,11.905s-15.027-9.879-22.606-11.905c-7.842-2.096-18.667,2.993-25.532-0.979
	c-6.964-4.029-7.944-15.986-13.596-21.639c-5.652-5.652-17.609-6.632-21.638-13.597c-3.972-6.865,1.117-17.69-0.979-25.532
	c-2.026-7.579-11.905-14.388-11.905-22.606s9.879-15.027,11.905-22.606c2.096-7.842-2.993-18.667,0.979-25.533
	c4.03-6.964,15.986-7.944,21.639-13.596c5.652-5.652,6.632-17.609,13.596-21.638c6.866-3.972,17.69,1.117,25.532-0.979
	c7.579-2.026,14.388-11.905,22.606-11.905s15.027,9.879,22.606,11.905c7.842,2.096,18.667-2.993,25.532,0.979
	c6.965,4.03,7.944,15.987,13.596,21.639s17.609,6.632,21.638,13.596c3.972,6.866-1.117,17.691,0.979,25.532
	C494.624,91.928,504.503,98.737,504.503,106.954z"/>
<path style="fill:#23B658;" d="M361.835,133.75C340.726,97.187,346.35,52.547,372.611,22.4c-4.484-0.51-8.849-0.793-12.276,1.072
	c-0.072,0.042-0.145,0.08-0.218,0.122c-0.071,0.041-0.139,0.084-0.21,0.125c-6.775,4.146-7.801,15.907-13.396,21.501
	c-5.647,5.647-17.585,6.631-21.626,13.578c-0.009,0.015-0.017,0.031-0.026,0.046c-3.944,6.867,1.127,17.674-0.966,25.505
	c-2.026,7.579-11.905,14.388-11.905,22.606c0,8.217,9.879,15.027,11.905,22.606c2.074,7.759-2.873,18.434,0.871,25.308
	c0.041,0.071,0.079,0.143,0.12,0.214s0.085,0.14,0.126,0.211c4.147,6.774,15.906,7.8,21.5,13.395
	c5.646,5.646,6.631,17.583,13.576,21.625c0.017,0.01,0.033,0.019,0.05,0.028c6.867,3.942,17.672-1.128,25.503,0.965
	c7.579,2.026,14.389,11.905,22.606,11.905c8.217,0,15.027-9.879,22.606-11.905c7.759-2.074,18.432,2.872,25.307-0.87
	c0.072-0.041,0.144-0.08,0.216-0.121c0.073-0.043,0.145-0.087,0.218-0.13c3.356-2.058,5.308-5.978,7.095-10.1
	C424.439,187.771,382.95,170.322,361.835,133.75z"/>
<path style="fill:#64C4FF;" d="M292.034,384.814h-45.225c-6.903,0-12.841-5.4-12.948-12.302
	c-0.109-6.995,5.529-12.699,12.499-12.699h45.225c6.903,0,12.841,5.4,12.948,12.302C304.641,379.11,299.004,384.814,292.034,384.814
	z"/>
<path style="fill:#48AEF9;" d="M267.791,372.512c-0.109-6.995,5.529-12.699,12.499-12.699h-33.93
	c-6.97,0-12.608,5.704-12.499,12.699c0.107,6.902,6.046,12.302,12.948,12.302h33.93
	C273.837,384.814,267.898,379.414,267.791,372.512z"/>
<circle style="fill:#FAC149;" cx="268.77" cy="268.81" r="62"/>
<path style="fill:#F8A748;" d="M238.442,286.323c-14.803-25.64-9.198-57.447,11.755-76.658c-4.245,1.337-8.413,3.138-12.428,5.456
	c-29.654,17.121-39.814,55.039-22.694,84.694c17.121,29.654,55.039,39.814,84.694,22.693c4.014-2.318,7.658-5.027,10.939-8.035
	C283.594,323.012,253.245,311.963,238.442,286.323z"/>
<path style="fill:#FC5B6F;" d="M32.566,299.814c-5.634,0-10.317,4.34-10.746,9.957L7.708,494.804
	c-0.247,3.242,2.317,6.009,5.568,6.009H195.58c3.258,0,5.827-2.772,5.579-6.021l-14.065-184.411
	c-0.455-5.962-5.425-10.568-11.405-10.568H32.566V299.814z"/>
<path style="fill:#F74352;" d="M50.375,494.805l14.112-185.034c0.428-5.618,5.112-9.957,10.746-9.957H32.566
	c-5.634,0-10.317,4.34-10.746,9.957L7.708,494.805c-0.247,3.242,2.317,6.009,5.569,6.009h42.666
	C52.692,500.814,50.128,498.047,50.375,494.805z"/>
<path style="fill:#EFEFEF;" d="M398.046,139.867L398.046,139.867c-3.405,0-6.669-1.352-9.077-3.76l-17.739-17.739
	c-5.013-5.013-5.013-13.141,0-18.153s13.141-5.012,18.153,0l8.662,8.663l25.036-25.037c5.013-5.013,13.14-5.013,18.153,0
	s5.013,13.14,0,18.153l-34.113,34.113C404.715,138.515,401.45,139.867,398.046,139.867z"/>
<path style="fill:#DDDDDD;" d="M441.235,83.841c-0.454-0.454-0.941-0.852-1.441-1.224c-0.014,2.882-1.118,5.76-3.317,7.959
	l-30.122,30.122c-4.423,4.423-11.604,4.426-16.029,0l-15.663-15.664c-1.501-1.502-2.481-3.323-2.964-5.243
	c-0.156,0.141-0.318,0.273-0.468,0.423c-5.013,5.013-5.013,13.14,0,18.153l17.739,17.739c5.009,5.009,13.141,5.012,18.153,0
	l34.113-34.113C446.248,96.981,446.248,88.854,441.235,83.841z"/>
<path d="M276.172,109.984h11.239c4.143,0,7.5-3.357,7.5-7.5s-3.357-7.5-7.5-7.5h-11.239c-4.143,0-7.5,3.357-7.5,7.5
	S272.03,109.984,276.172,109.984z"/>
<path d="M274.578,436.064h-11.24c-4.143,0-7.5,3.357-7.5,7.5s3.357,7.5,7.5,7.5h11.24c4.143,0,7.5-3.357,7.5-7.5
	S278.721,436.064,274.578,436.064z"/>
<path d="M250.507,109.983c4.153,0,7.5-3.399,7.5-7.5c0-3.695-2.692-6.716-6.04-7.351c-4.536-0.941-8.96,2.549-8.96,7.351
	C243.007,106.608,246.342,109.983,250.507,109.983z"/>
<path d="M511.998,106.954c0-11.249-10.708-19.109-12.159-24.542c-1.571-5.88,3.827-17.74-1.733-27.353
	c-5.543-9.576-18.764-11.078-22.826-15.143c-4.184-4.184-5.45-17.219-15.144-22.826c-9.61-5.561-21.488-0.163-27.353-1.734
	c-5.439-1.453-13.298-12.159-24.543-12.159c-11.254,0-19.105,10.707-24.542,12.159c-5.867,1.573-17.743-3.828-27.352,1.733
	c-9.594,5.55-11.067,18.752-15.145,22.826c-4.177,4.18-17.214,5.447-22.827,15.145c-2.743,4.742-2.811,9.932-2.374,14.825H202.545
	c-28.942,0-52.8,23.273-52.8,52.801v125.039c-11.066-12.593-27.273-20.564-45.316-20.564c-33.27,0-60.337,27.067-60.337,60.338
	v4.915H32.404c-9.498,0-17.502,7.418-18.224,16.887L0.038,494.711c-0.577,7.595,5.44,14.09,13.058,14.09h38.496
	c4.143,0,7.5-3.357,7.5-7.5s-3.357-7.5-7.5-7.5h-36.44l13.985-183.36c0.129-1.697,1.565-3.026,3.267-3.026h11.688v22.522
	c0,4.142,3.357,7.5,7.5,7.5s7.5-3.358,7.5-7.5v-22.522h90.675v22.522c0,4.142,3.357,7.5,7.5,7.5s7.5-3.358,7.5-7.5v-22.522h11.055
	c1.918,0,3.785,1.508,3.948,3.659l13.938,182.728H86.592c-4.143,0-7.5,3.357-7.5,7.5s3.357,7.5,7.5,7.5l0,0h248.779
	c29.114,0,52.8-23.687,52.8-52.801v-20.393c0-4.142-3.357-7.5-7.5-7.5s-7.5,3.358-7.5,7.5V456c0,20.844-16.957,37.801-37.8,37.801
	h-126.62l-0.037-0.484l-0.733-9.615h127.39c15.329,0,27.701-12.436,27.701-27.702V199.116c3.319,0.497,6.783,0.251,10.099-0.119
	v201.61c0,4.143,3.357,7.5,7.5,7.5s7.5-3.357,7.5-7.5V201.036c5.284,3.747,11.64,9.676,20.069,9.676
	c11.254,0,19.1-10.705,24.543-12.159c5.879-1.572,17.741,3.825,27.351-1.732c9.596-5.551,11.068-18.75,15.145-22.827
	c4.184-4.184,17.219-5.45,22.826-15.144c5.558-9.603,0.165-21.489,1.734-27.352C501.293,126.053,511.998,118.2,511.998,106.954z
	 M149.745,292.414H59.092v-4.915c0-24.999,20.339-45.338,45.338-45.338c24.715,0,44.86,19.883,45.315,44.491V292.414z
	 M174.844,122.687v169.728h-10.077c-0.004-29.148-0.019-147.705-0.021-169.728c0-21.258,17.191-37.801,37.8-37.801h112.94
	c-2.78,4.605-8.283,9.945-10.275,16.971c-1.612,5.678-0.434,10.926,2.566,16.091c-0.752,0.677-1.739,1.085-2.79,1.085h-72.058
	c-2.273,0-4.194-1.921-4.194-4.194v-4.795c0-8.304-6.756-15.06-15.06-15.06h-11.13C187.315,94.984,174.844,107.399,174.844,122.687z
	 M348.072,456c0,7.058-5.719,12.702-12.701,12.702H206.837l-12.11-158.769c-0.33-4.331-2.131-8.245-4.883-11.271V122.687
	c0-7.045,5.766-12.702,12.701-12.702l11.189,0.06v4.795c0,10.584,8.61,19.194,19.194,19.194h72.058
	c4.119,0,8.012-1.369,11.209-3.688c2.774,5.9-3.746,18.262,2.18,28.503c5.552,9.596,18.751,11.066,22.826,15.145
	c2.341,2.339,4.162,8.54,6.871,13.629V456z M485.348,127.623c-2.421,9.054,1.859,20.113-0.227,23.714
	c-2.101,3.633-13.981,5.582-20.45,12.049c-6.524,6.526-8.366,18.32-12.049,20.45c-3.535,2.048-14.731-2.173-23.712,0.225
	c-8.855,2.367-16.217,11.651-20.67,11.651c-4.521,0-11.734-9.262-20.67-11.651c-8.952-2.39-20.195,1.805-23.712-0.225
	c-3.582-2.072-5.616-14.016-12.05-20.45c-6.49-6.492-18.337-8.398-20.45-12.051c-2.055-3.548,2.18-14.719-0.225-23.712
	c-2.358-8.818-11.65-16.213-11.65-20.669c0-4.511,9.279-11.76,11.665-20.731c2.343-8.888-1.816-20.148,0.21-23.651
	c2.108-3.643,13.952-5.549,20.451-12.049c6.542-6.544,8.375-18.325,12.049-20.45c3.544-2.054,14.722,2.176,23.713-0.225
	c8.853-2.366,16.217-11.651,20.669-11.651c4.521,0,11.734,9.262,20.67,11.651c8.867,2.365,20.204-1.803,23.713,0.226
	c3.633,2.101,5.581,13.981,12.05,20.45c6.538,6.538,18.324,8.375,20.449,12.047c2.03,3.512-2.16,14.79,0.225,23.714
	c2.366,8.853,11.651,16.217,11.651,20.669C496.998,111.455,487.727,118.718,485.348,127.623z"/>
<path d="M417.439,79.056l-19.236,19.236l-3.187-3.188c-7.83-7.83-20.57-7.828-28.4,0c-7.83,7.83-7.83,20.571,0,28.4l17.387,17.389
	c3.793,3.792,8.836,5.881,14.2,5.881c5.363,0,10.406-2.088,14.201-5.881l33.436-33.438c7.828-7.83,7.828-20.569-0.001-28.4
	C438.009,71.227,425.269,71.226,417.439,79.056z M435.233,96.85l-33.435,33.436c-1.998,1.998-5.216,1.975-7.188,0.002
	l-17.387-17.389c-1.982-1.981-1.982-5.205-0.001-7.187c1.98-1.98,5.204-1.983,7.186-0.001l8.49,8.491
	c2.925,2.927,7.677,2.93,10.607,0l24.539-24.54c1.981-1.982,5.206-1.983,7.188-0.001S437.214,94.868,435.233,96.85z"/>
<path d="M292.178,352.313h-45.973c-11.073,0-20.082,9.009-20.082,20.082s9.009,20.082,20.082,20.082h45.973
	c11.073,0,20.082-9.009,20.082-20.082C312.26,361.321,303.251,352.313,292.178,352.313z M292.178,377.477h-45.973
	c-2.803,0-5.082-2.279-5.082-5.082s2.279-5.082,5.082-5.082h45.973c2.803,0,5.082,2.279,5.082,5.082
	C297.26,375.197,294.981,377.477,292.178,377.477z"/>
<path d="M268.41,225.976c-4.142,0-7.5,3.357-7.5,7.5v0.733c-11.112,0.669-19.954,9.896-19.954,21.172
	c0,11.277,8.842,20.503,19.954,21.172v12.539h-6.436c-4.143,0-7.5,3.357-7.5,7.5s3.357,7.5,7.5,7.5h6.457
	c0.217,3.948,3.477,7.084,7.479,7.084c4.024,0,7.297-3.17,7.482-7.148c11.12-0.66,19.972-9.89,19.972-21.173
	c0-11.277-8.842-20.502-19.954-21.171v-12.54h5.685c4.143,0,7.5-3.357,7.5-7.5s-3.357-7.5-7.5-7.5h-5.685v-0.668
	C275.91,229.333,272.553,225.976,268.41,225.976z M260.91,261.484c-2.826-0.594-4.954-3.104-4.954-6.103c0-3,2.128-5.51,4.954-6.103
	V261.484z M280.864,282.855c0,3-2.128,5.51-4.954,6.103v-12.206C278.736,277.346,280.864,279.856,280.864,282.855z"/>
<path d="M85.425,344.043h38.374c4.143,0,7.5-3.357,7.5-7.5s-3.357-7.5-7.5-7.5H85.425c-4.143,0-7.5,3.357-7.5,7.5
	S81.282,344.043,85.425,344.043z"/>
<path d="M269.192,199.149c-12.084,0-24.003,3.171-34.469,9.169c-3.594,2.06-4.837,6.643-2.777,10.236
	c2.06,3.594,6.643,4.837,10.236,2.777c8.198-4.699,17.538-7.183,27.01-7.183c30.012,0,54.428,24.416,54.428,54.427
	c0,30.012-24.416,54.428-54.428,54.428s-54.428-24.416-54.428-54.428c0-8.811,2.054-17.235,6.105-25.035
	c1.909-3.677,0.477-8.204-3.199-10.113c-3.677-1.906-8.202-0.478-10.113,3.199c-5.098,9.817-7.793,20.865-7.793,31.949
	c0,38.282,31.146,69.428,69.428,69.428s69.428-31.146,69.428-69.428S307.474,199.149,269.192,199.149z"/>
<g>
</g>
<g>
</g>
<g>
</g>
<g>
</g>
<g>
</g>
<g>
</g>
<g>
</g>
<g>
</g>
<g>
</g>
<g>
</g>
<g>
</g>
<g>
</g>
<g>
</g>
<g>
</g>
<g>
</g>
</svg>
