<svg height="512" viewBox="0 0 64 64" width="512" xmlns="http://www.w3.org/2000/svg"><g id="flat"><path d="m31 35h24v26h-24z" fill="#9b1e5a"/><path d="m34 5h18v26h-18z" fill="#ffd782"/><g fill="#394d5c"><path d="m34 5h18v6h-18z"/><path d="m37 14h2v2h-2z"/><path d="m47 14h2v2h-2z"/></g><path d="m43 43a5 5 0 0 1 -5-5v-3h10v3a5 5 0 0 1 -5 5z" fill="#ffd782"/><path d="m34 23a4 4 0 0 1 0-8z" fill="#f9bb4b"/><path d="m52 15a4 4 0 0 1 0 8z" fill="#f9bb4b"/><path d="m55 35h6a0 0 0 0 1 0 0v14a0 0 0 0 1 0 0h-3a3 3 0 0 1 -3-3v-11a0 0 0 0 1 0 0z" fill="#dc93bf" transform="matrix(-1 0 0 -1 116 84)"/><path d="m55 49h6v12h-6z" fill="#ffd782" transform="matrix(-1 0 0 -1 116 110)"/><path d="m41 16h2v4h-2z" fill="#394d5c"/><path d="m38 23h8a0 0 0 0 1 0 0v2a4 4 0 0 1 -4 4 4 4 0 0 1 -4-4v-2a0 0 0 0 1 0 0z" fill="#b11e48"/><path d="m11 35h10v16h-10z" fill="#394d5c"/><path d="m25 49v6l-4-4h-8l10 10h8v-12z" fill="#ffd782"/><path d="m28 35h3a0 0 0 0 1 0 0v14a0 0 0 0 1 0 0h-6a0 0 0 0 1 0 0v-11a3 3 0 0 1 3-3z" fill="#dc93bf"/><path d="m3 3v24h7l6 4v-4h12v-24z" fill="#b459a1"/><path d="m22.97 15.242 2-8a1 1 0 0 0 -.97-1.242h-18v2h3.219l1.811 7.242.755 3.02a3 3 0 1 0 4.215 2.738 2.966 2.966 0 0 0 -.184-1h2.368a2.966 2.966 0 0 0 -.184 1 3 3 0 1 0 3-3h-7.219l-.5-2h8.719a1 1 0 0 0 .97-.758zm-8.97 5.758a1 1 0 1 1 -1-1 1 1 0 0 1 1 1zm8 0a1 1 0 1 1 -1-1 1 1 0 0 1 1 1zm-9.219-7-.5-2h6.719v-2h-7.219l-.5-2h11.438l-1.5 6z" fill="#f4f4e6"/><path d="m31 49h24v4h-24z" fill="#f4f4e6"/><path d="m31 53h24v4h-24z" fill="#87cee9"/><rect fill="#ffd782" height="4" rx="2" width="6" x="8" y="43"/><rect fill="#f9bb4b" height="4" rx="2" width="6" x="8" y="47"/></g></svg>