<?xml version="1.0"?>
<svg xmlns="http://www.w3.org/2000/svg" xmlns:xlink="http://www.w3.org/1999/xlink" xmlns:svgjs="http://svgjs.com/svgjs" version="1.1" width="512" height="512" x="0" y="0" viewBox="0 0 480.009 480.009" style="enable-background:new 0 0 512 512" xml:space="preserve" class=""><g>
<path xmlns="http://www.w3.org/2000/svg" style="" d="M8,56.005h288v360H8V56.005z" fill="#ff9100" data-original="#ffc67b" class=""/>
<g xmlns="http://www.w3.org/2000/svg">
	<path style="" d="M40,472.005h224c17.673,0,32-14.327,32-32v-16H8v16C8,457.678,22.327,472.005,40,472.005z" fill="#43f3b8" data-original="#bcbec0" class=""/>
	<path style="" d="M264,8.005H40c-17.673,0-32,14.327-32,32v16h288v-16C296,22.331,281.673,8.005,264,8.005z" fill="#43f3b8" data-original="#bcbec0" class=""/>
</g>
<g xmlns="http://www.w3.org/2000/svg">
	<circle style="" cx="296" cy="336.005" r="24" fill="#ff3400" data-original="#ff7754" class=""/>
	<circle style="" cx="408" cy="336.005" r="24" fill="#ff3400" data-original="#ff7754" class=""/>
	<path style="" d="M408.16,288.005H264l-24-128h232l-16.656,88.848C451.086,271.557,431.26,288.008,408.16,288.005z" fill="#ff3400" data-original="#ff7754" class=""/>
</g>
<g xmlns="http://www.w3.org/2000/svg">
	<path style="" d="M152,40.005h48c4.418,0,8-3.582,8-8s-3.582-8-8-8h-48c-4.418,0-8,3.582-8,8   S147.582,40.005,152,40.005z" fill="#231f20" data-original="#231f20" class=""/>
	<path style="" d="M104,40.005h16c4.418,0,8-3.582,8-8s-3.582-8-8-8h-16c-4.418,0-8,3.582-8,8   S99.582,40.005,104,40.005z" fill="#231f20" data-original="#231f20" class=""/>
	<path style="" d="M176,440.005h-48c-4.418,0-8,3.582-8,8s3.582,8,8,8h48c4.418,0,8-3.582,8-8   S180.418,440.005,176,440.005z" fill="#231f20" data-original="#231f20" class=""/>
	<path style="" d="M40,144.005c4.418,0,8-3.582,8-8v-40h40c4.418,0,8-3.582,8-8s-3.582-8-8-8H40c-4.418,0-8,3.582-8,8   v48C32,140.423,35.582,144.005,40,144.005z" fill="#231f20" data-original="#231f20" class=""/>
	<path style="" d="M478.16,154.893c-1.521-1.831-3.779-2.89-6.16-2.888H304v-112c-0.026-22.08-17.92-39.974-40-40H40   c-22.08,0.026-39.974,17.92-40,40v400c0.026,22.08,17.92,39.974,40,40h224c22.08-0.026,39.974-17.92,40-40v-73.136   c11.195-2.927,19.937-11.669,22.864-22.864h50.272c4.418,17.112,21.872,27.402,38.984,22.984   c17.112-4.418,27.402-21.872,22.984-38.984s-21.872-27.402-38.984-22.984c-11.272,2.91-20.074,11.712-22.984,22.984h-50.272   c-2.927-11.195-11.669-19.937-22.864-22.864v-9.136h104.168c26.945-0.004,50.066-19.197,55.032-45.68l16.664-88.8   C480.319,159.17,479.693,156.736,478.16,154.893z M40,16.005h224c13.255,0,24,10.745,24,24v8H16v-8   C16,26.75,26.745,16.005,40,16.005z M264,464.005H40c-13.255,0-24-10.745-24-24v-8h272v8C288,453.259,277.255,464.005,264,464.005z    M408,320.005c8.837,0,16,7.163,16,16s-7.163,16-16,16s-16-7.163-16-16S399.163,320.005,408,320.005z M312,336.005   c0,8.837-7.163,16-16,16s-16-7.163-16-16s7.163-16,16-16S312,327.168,312,336.005z M288,305.141   c-17.046,4.338-27.347,21.674-23.009,38.719c2.877,11.304,11.704,20.131,23.009,23.009v49.136H16v-352h272v88h-39.2l-5.712-33.352   c-0.659-3.842-3.99-6.649-7.888-6.648h-35.352c-4.418,0-8,3.582-8,8c0,4.418,3.582,8,8,8h28.608l27.656,161.352   c0.659,3.842,3.99,6.65,7.888,6.648h24L288,305.141z M447.48,247.373c-3.546,18.919-20.063,32.63-39.312,32.632H270.744l-19.2-112   H462.4L447.48,247.373z" fill="#231f20" data-original="#231f20" class=""/>
	<path style="" d="M168,200.005c0,4.418,3.582,8,8,8s8-3.582,8-8c-0.043-23.397-16.934-43.361-40-47.28v-16.72h-16   v16.72c-26.112,4.392-43.72,29.12-39.328,55.232c3.389,20.151,19.177,35.939,39.328,39.328v63.584   c-14.085-3.637-23.945-16.317-24-30.864c0-4.418-3.582-8-8-8s-8,3.582-8,8c0.043,23.397,16.934,43.361,40,47.28v16.72h16v-16.72   c26.112-4.392,43.72-29.12,39.328-55.232c-3.389-20.151-19.177-35.939-39.328-39.328v-63.584   C158.085,172.777,167.945,185.457,168,200.005z M104,200.005c0.055-14.547,9.915-27.227,24-30.864v61.728   C113.915,227.232,104.055,214.552,104,200.005z M168,280.005c-0.055,14.547-9.915,27.227-24,30.864v-61.728   C158.085,252.777,167.945,265.457,168,280.005L168,280.005z" fill="#231f20" data-original="#231f20" class=""/>
	<path style="" d="M88,384.005H48v-40c0-4.418-3.582-8-8-8s-8,3.582-8,8v48c0,4.418,3.582,8,8,8h48   c4.418,0,8-3.582,8-8S92.418,384.005,88,384.005z" fill="#231f20" data-original="#231f20" class=""/>
</g>
<g xmlns="http://www.w3.org/2000/svg">
</g>
<g xmlns="http://www.w3.org/2000/svg">
</g>
<g xmlns="http://www.w3.org/2000/svg">
</g>
<g xmlns="http://www.w3.org/2000/svg">
</g>
<g xmlns="http://www.w3.org/2000/svg">
</g>
<g xmlns="http://www.w3.org/2000/svg">
</g>
<g xmlns="http://www.w3.org/2000/svg">
</g>
<g xmlns="http://www.w3.org/2000/svg">
</g>
<g xmlns="http://www.w3.org/2000/svg">
</g>
<g xmlns="http://www.w3.org/2000/svg">
</g>
<g xmlns="http://www.w3.org/2000/svg">
</g>
<g xmlns="http://www.w3.org/2000/svg">
</g>
<g xmlns="http://www.w3.org/2000/svg">
</g>
<g xmlns="http://www.w3.org/2000/svg">
</g>
<g xmlns="http://www.w3.org/2000/svg">
</g>
</g></svg>
