<?xml version="1.0" encoding="iso-8859-1"?>
<!-- Generator: Adobe Illustrator 19.0.0, SVG Export Plug-In . SVG Version: 6.00 Build 0)  -->
<svg version="1.1" id="Capa_1" xmlns="http://www.w3.org/2000/svg" xmlns:xlink="http://www.w3.org/1999/xlink" x="0px" y="0px"
	 viewBox="0 0 480 480" style="enable-background:new 0 0 480 480;" xml:space="preserve">
<path style="fill:#FFEDE8;" d="M71.2,441.5l195.04,29.856c3.74,0.655,7.591-0.024,10.88-1.92l181.92-105.04
	c11.471-6.64,15.407-21.31,8.8-32.8c-6.663-11.441-21.305-15.369-32.8-8.8l-99.04,57.2c-4.264,7.418-12.164,11.993-20.72,12
	c-2.106,0.01-4.204-0.259-6.24-0.8L208,376.396l101.04,14.8c10.484,2.775,21.529-1.813,26.96-11.2c1.058-1.802,1.865-3.74,2.4-5.76
	c3.437-12.812-4.153-25.986-16.96-29.44l-75.68-13.44c-11.487-2.612-22.553-6.813-32.88-12.48
	c-18.785-9.782-39.702-14.757-60.88-14.48c-20.815-0.278-41.383,4.528-59.92,14c-3.315,1.658-6.772,3.018-10.328,4.064
	c-13.41,4.046-27.353,6.047-41.36,5.936H8v112h48.696C61.552,440.397,66.4,440.766,71.2,441.5L71.2,441.5z"/>
<path style="fill:#FFDAAA;" d="M456,264.396v-208H136v208H456z M264,88.396h64c8.837,0,16,7.163,16,16s-7.163,16-16,16h-64
	c-8.837,0-16-7.163-16-16S255.163,88.396,264,88.396z"/>
<g>
	<path style="fill:#FFB655;" d="M472,56.396v-48H120v48h16h320H472z"/>
	<path style="fill:#FFB655;" d="M264,120.396h64c8.837,0,16-7.163,16-16s-7.163-16-16-16h-64c-8.837,0-16,7.163-16,16
		S255.163,120.396,264,120.396z"/>
</g>
<g>
	<path style="fill:#231F20;" d="M474.76,327.596c-8.92-15.201-28.396-20.418-43.72-11.712l-84.032,48.512
		c-1.634-13.261-11.225-24.166-24.168-27.48l-75.296-13.32c-10.77-2.458-21.147-6.399-30.832-11.712
		c-19.974-10.391-42.198-15.71-64.712-15.488c-22.127-0.314-43.993,4.815-63.672,14.936c-2.878,1.418-5.873,2.585-8.952,3.488
		c-12.639,3.818-25.782,5.705-38.984,5.6H8c-4.418,0-8,3.582-8,8v111.976c0,4.418,3.582,8,8,8h48.696
		c4.457,0,8.907,0.34,13.312,1.016l194.856,29.824c5.584,0.984,11.336-0.021,16.256-2.84l181.912-105.04
		c9.958-5.666,16.077-16.271,16-27.728C479.036,338.002,477.562,332.474,474.76,327.596L474.76,327.596z M455.04,357.468
		L273.08,462.532c-1.701,0.953-3.683,1.279-5.6,0.92L72.44,433.596c-5.21-0.797-10.473-1.199-15.744-1.2H16v-96h24.392
		c14.815,0.111,29.562-2.012,43.744-6.296c4.041-1.189,7.965-2.747,11.72-4.656c17.388-8.816,36.651-13.293,56.144-13.048
		c19.826-0.243,39.408,4.389,57.024,13.488c11.096,6.08,22.991,10.572,35.336,13.344l75,13.296
		c8.539,2.31,13.599,11.095,11.312,19.64c-0.356,1.321-0.895,2.587-1.6,3.76v0.072h-0.04c-3.733,6.097-10.967,9.097-17.92,7.432
		c-0.304-0.08-101.968-14.984-101.968-14.984c-4.351-0.768-8.501,2.136-9.269,6.487c-0.768,4.351,2.136,8.501,6.487,9.269
		c0.153,0.027,0.308,0.05,0.462,0.068c0,0,105.672,15.672,108.328,15.68h0.112c10.546-0.007,20.406-5.231,26.336-13.952
		l97.408-56.264c7.642-4.436,17.434-1.837,21.87,5.806c1.421,2.448,2.167,5.228,2.162,8.058
		C463.077,349.326,460.018,354.631,455.04,357.468L455.04,357.468z"/>
	<path style="fill:#231F20;" d="M472,0.396H120c-4.418,0-8,3.582-8,8v48c0,4.418,3.582,8,8,8h8v200c0,4.418,3.582,8,8,8h320
		c4.418,0,8-3.582,8-8v-200h8c4.418,0,8-3.582,8-8v-48C480,3.978,476.418,0.396,472,0.396z M448,256.396H144v-192h304V256.396z
		 M464,48.396H128v-32h336V48.396z"/>
	<path style="fill:#231F20;" d="M160,232.396h16v16h-16V232.396z"/>
	<path style="fill:#231F20;" d="M192,232.396h16v16h-16V232.396z"/>
	<path style="fill:#231F20;" d="M224,232.396h16v16h-16V232.396z"/>
	<path style="fill:#231F20;" d="M256,232.396h16v16h-16V232.396z"/>
	<path style="fill:#231F20;" d="M288,232.396h16v16h-16V232.396z"/>
	<path style="fill:#231F20;" d="M320,232.396h16v16h-16V232.396z"/>
	<path style="fill:#231F20;" d="M352,232.396h16v16h-16V232.396z"/>
	<path style="fill:#231F20;" d="M384,232.396h16v16h-16V232.396z"/>
	<path style="fill:#231F20;" d="M416,232.396h16v16h-16V232.396z"/>
	<path style="fill:#231F20;" d="M328,128.396h-64c-13.255,0-24-10.745-24-24s10.745-24,24-24h64c13.255,0,24,10.745,24,24
		S341.255,128.396,328,128.396z M264,96.396c-4.418,0-8,3.582-8,8s3.582,8,8,8h64c4.418,0,8-3.582,8-8s-3.582-8-8-8H264z"/>
</g>
<g>
</g>
<g>
</g>
<g>
</g>
<g>
</g>
<g>
</g>
<g>
</g>
<g>
</g>
<g>
</g>
<g>
</g>
<g>
</g>
<g>
</g>
<g>
</g>
<g>
</g>
<g>
</g>
<g>
</g>
</svg>
