<?xml version="1.0"?>
<svg xmlns="http://www.w3.org/2000/svg" xmlns:xlink="http://www.w3.org/1999/xlink" xmlns:svgjs="http://svgjs.com/svgjs" version="1.1" width="512" height="512" x="0" y="0" viewBox="0 0 488 488.90671" style="enable-background:new 0 0 512 512" xml:space="preserve" class=""><g><path xmlns="http://www.w3.org/2000/svg" d="m200.773438 102.476562c-.53125-.03125-1.070313-.050781-1.609376-.050781-13.910156 0-25.453124 10.753907-26.429687 24.632813-.050781.609375-.070313 1.238281-.070313 1.867187-.003906 14.429688 11.539063 26.214844 25.964844 26.507813 14.425782.292968 26.4375-11.007813 27.023438-25.429688.582031-14.417968-10.476563-26.652344-24.878906-27.527344zm-90.058594-29.167968 17.988281-22.691406h140.929687l47.902344 60.398437v291.890625h-236.742187v-291.890625zm0 0" fill="#c659e5" data-original="#00acea" style="" class=""/><g xmlns="http://www.w3.org/2000/svg" fill="#00efd1"><path d="m254.074219 402.90625-30.492188 86-223.128906-79.109375 80.210937-226.230469h.128907v219.339844zm0 0" fill="#5ae2ba" data-original="#00efd1" style="" class=""/><path d="m178.160156 135.519531c-2.253906-.007812-4.503906-.199219-6.726562-.570312-18.644532-3.042969-40.433594-18.640625-56.855469-40.707031-4.058594-5.445313-7.707031-11.183594-10.921875-17.167969-16.277344-30.441407-16.152344-59.125.3125-71.375 10.289062-7.65625 24.84375-7.597657 40.984375.171875 14.472656 6.964844 28.949219 19.546875 40.769531 35.429687.992188 1.316407 2.023438 2.769531 3.3125 4.652344.15625.210937.300782.425781.433594.648437l-13.675781 8.308594c.140625.238282.296875.460938.46875.675782-.117188-.148438-.230469-.300782-.339844-.460938-1.191406-1.746094-2.121094-3.050781-3.011719-4.234375-21.617187-29.050781-48.644531-40.355469-59.390625-32.355469-9.390625 6.988282-7.5625 28.910156 4.25 51 2.835938 5.285156 6.0625 10.351563 9.648438 15.164063 13.820312 18.566406 32.117187 32.097656 46.605469 34.460937 5.363281.882813 9.648437.160156 12.753906-2.148437 4.652344-3.457031 5.832031-9.964844 6-14.8125l7.339844.253906 8.652343-.027344v.050781.28125c-.417969 11.992188-4.722656 21.359376-12.445312 27.09375-5.273438 3.816407-11.652344 5.808594-18.164063 5.667969zm0 0" fill="#5ae2ba" data-original="#00efd1" style="" class=""/><path d="m279.8125 373.1875h-161.300781c-4.417969 0-8-3.582031-8-8s3.582031-8 8-8h161.300781c4.417969 0 8 3.582031 8 8s-3.582031 8-8 8zm0 0" fill="#5ae2ba" data-original="#00efd1" style="" class=""/><path d="m279.8125 335.464844h-161.300781c-4.417969 0-8-3.578125-8-8 0-4.417969 3.582031-8 8-8h161.300781c4.417969 0 8 3.582031 8 8 0 4.421875-3.582031 8-8 8zm0 0" fill="#5ae2ba" data-original="#00efd1" style="" class=""/></g><path xmlns="http://www.w3.org/2000/svg" d="m295.8125 227.714844v20.722656c0 13.757812-8.640625 18.878906-19.679688 18.878906h-14.160156c-3.28125 0-5.4375-1.757812-5.4375-3.757812v-50.960938c0-2 2.15625-3.761718 5.4375-3.761718h14.160156c11.039063 0 19.679688 5.121093 19.679688 18.878906zm-12.480469 20.722656v-20.722656c0-5.4375-2.71875-8-7.199219-8h-7.121093v36.722656h7.121093c4.480469 0 7.199219-2.5625 7.199219-8zm0 0" fill="#fedb41" data-original="#fedb41" style="" class=""/><path xmlns="http://www.w3.org/2000/svg" d="m239.894531 256.4375c2.398438 0 3.597657 2.71875 3.597657 5.4375 0 2.722656-1.199219 5.441406-3.597657 5.441406h-25.28125c-2.71875 0-5.441406-1.28125-5.441406-3.839844v-50.878906c0-2.640625 3.121094-3.761718 6.242187-3.761718 3.121094 0 6.238282 1.121093 6.238282 3.761718v43.839844zm0 0" fill="#fedb41" data-original="#fedb41" style="" class=""/><path xmlns="http://www.w3.org/2000/svg" d="m193.171875 227.714844v21.203125c0 13.757812-8.636719 18.878906-19.679687 18.878906-11.039063 0-19.597657-5.121094-19.597657-18.878906v-21.203125c0-13.757813 8.558594-18.878906 19.597657-18.878906 11.042968 0 19.679687 5.121093 19.679687 18.878906zm-12.480469 21.203125v-21.203125c0-5.519532-2.71875-8-7.199218-8-4.480469 0-7.117188 2.480468-7.117188 8v21.203125c0 5.519531 2.636719 8 7.117188 8 4.480468 0 7.199218-2.480469 7.199218-8zm0 0" fill="#fedb41" data-original="#fedb41" style="" class=""/><path xmlns="http://www.w3.org/2000/svg" d="m138.933594 215.398438c0 2.160156-1.441406 6.558593-4.960938 6.558593-2.878906 0-4.398437-3.039062-10.960937-3.039062-5.679688 0-8 2.320312-8 4.796875 0 8 25.363281 6.480468 25.363281 26.640625 0 11.519531-8.402344 17.761719-20 17.761719-10.480469 0-19.28125-5.121094-19.28125-10.402344 0-2.71875 2.398438-6.71875 5.441406-6.71875 3.757813 0 6.15625 5.921875 13.597656 5.921875 3.679688 0 7.761719-1.441407 7.761719-5.28125 0-9.679688-25.359375-8-25.359375-26.71875 0-12 10.476563-16.5625 20.476563-16.5625 4.242187 0 15.921875.800781 15.921875 7.042969zm0 0" fill="#fedb41" data-original="#fedb41" style="" class=""/></g></svg>
